<?xml version="1.0" encoding="UTF-8"?><svg id="Capa_2" xmlns="http://www.w3.org/2000/svg" viewBox="0 0 20 17.7"><defs><style>.cls-1{fill:none;stroke:#212429;stroke-linecap:round;stroke-linejoin:round;stroke-width:2px;}</style></defs><g id="Capa_1-2"><path class="cls-1" d="M17.61,2.39c-.44-.44-.96-.79-1.54-1.03-.57-.24-1.19-.36-1.81-.36s-1.24.12-1.81.36c-.57.24-1.1.59-1.54,1.03l-.91.91-.91-.91c-.89-.89-2.09-1.39-3.35-1.39s-2.46.5-3.35,1.39c-.89.89-1.39,2.09-1.39,3.35s.5,2.46,1.39,3.35l.91.91,6.7,6.7,6.7-6.7.91-.91c.44-.44.79-.96,1.03-1.54.24-.57.36-1.19.36-1.81s-.12-1.24-.36-1.81-.59-1.1-1.03-1.54h0Z"/></g></svg>