<?xml version="1.0" encoding="UTF-8"?><svg id="Capa_2" xmlns="http://www.w3.org/2000/svg" viewBox="0 0 20.25 20"><defs><style>.cls-1{fill:none;stroke:#212429;stroke-linecap:round;stroke-linejoin:round;stroke-width:2px;}</style></defs><g id="Capa_1-2"><path class="cls-1" d="M8.25,19c-1.11,0-2-.9-2-2s.9-2,2-2,2,.9,2,2-.9,2-2,2ZM18.21,17c0-1.11-.9-2-2-2s-2,.9-2,2,.9,2,2,2,2-.9,2-2ZM6.25,10.78L4.05,2.6c-.25-.94-1.11-1.6-2.08-1.6h-.97M19.25,14.99H5.35c-1.16,0-2.11-.94-2.11-2.11h0c0-1.16.94-2.11,2.11-2.11h10.13c.85,0,1.6-.56,1.84-1.37l1.93-6.53H4.37"/></g></svg>