<?xml version="1.0" encoding="UTF-8"?><svg id="Capa_2" xmlns="http://www.w3.org/2000/svg" viewBox="0 0 19.96 20"><defs><style>.cls-1{fill:none;stroke:#212429;stroke-linecap:round;stroke-linejoin:round;stroke-width:2px;}</style></defs><g id="Capa_1-2"><path class="cls-1" d="M18.96,14.48v2.71c0,.25-.05.5-.15.73s-.25.44-.43.61c-.19.17-.4.3-.64.38-.24.08-.49.11-.74.09-2.78-.3-5.45-1.25-7.79-2.77-2.18-1.39-4.03-3.24-5.42-5.42-1.53-2.36-2.48-5.04-2.77-7.83-.02-.25,0-.5.09-.74.08-.24.21-.46.38-.64.17-.19.37-.33.6-.43.23-.1.48-.15.73-.15h2.71c.44,0,.86.15,1.2.44.33.29.55.68.61,1.12.11.87.33,1.72.63,2.54.12.32.15.67.08,1.01-.07.34-.24.65-.48.89l-1.15,1.15c1.29,2.26,3.16,4.13,5.42,5.42l1.15-1.15c.25-.24.56-.41.89-.48.34-.07.69-.05,1.01.08.82.31,1.67.52,2.54.63.44.06.84.28,1.13.62.29.34.44.77.43,1.21Z"/></g></svg>